<mxfile host="app.diagrams.net" modified="2024-06-28T13:45:44.472Z" agent="Mozilla/5.0 (Macintosh; Intel Mac OS X 10_15_7) AppleWebKit/537.36 (KHTML, like Gecko) Chrome/126.0.0.0 Safari/537.36" version="24.6.4" etag="X2fxi6F8GyihQOR_RUG6" type="github">
  <diagram name="Page-1" id="C9q4yq6MHT-xsVLonVtG">
    <mxGraphModel>
      <root>
        <mxCell id="0" />
        <mxCell id="1" parent="0" />
      </root>
    </mxGraphModel>
  </diagram>
</mxfile>
